<svg xmlns="http://www.w3.org/2000/svg" xmlns:xlink="http://www.w3.org/1999/xlink" xml:space="preserve" version="1.1" style="shape-rendering:geometricPrecision;text-rendering:geometricPrecision;image-rendering:optimizeQuality;" viewBox="0 0 333.33 416.66249999999997" x="0px" y="0px" fill-rule="evenodd" clip-rule="evenodd"><defs><style type="text/css">
   
    .fil0 {fill:black;fill-rule:nonzero}
   
  </style></defs><g><path class="fil0" d="M293.32 163.5c14.24,-14.24 21.36,-33.03 21.36,-51.82 0,-18.79 -7.12,-37.57 -21.36,-51.82 -14.24,-14.24 -33.03,-21.37 -51.82,-21.37 -18.79,0 -37.58,7.12 -51.82,21.37l-17.61 17.61c-2.99,2.99 -7.84,2.99 -10.83,0l-17.61 -17.61c-14.24,-14.24 -33.03,-21.37 -51.82,-21.37 -18.79,0 -37.57,7.12 -51.82,21.37 -14.24,14.24 -21.36,33.03 -21.36,51.82 0,18.79 7.12,37.58 21.36,51.82l128.11 128.11 125.22 -128.1 -0.02 -0.02zm36.68 -51.82c0,22.7 -8.62,45.41 -25.85,62.65l-0.02 -0.02 -130.11 133.11c-0.14,0.17 -0.28,0.32 -0.44,0.48 -2.99,2.99 -7.83,2.99 -10.82,0l-133.58 -133.57c-17.23,-17.23 -25.85,-39.94 -25.85,-62.65 0,-22.7 8.62,-45.41 25.85,-62.65 17.24,-17.23 39.94,-25.85 62.65,-25.85 22.7,0 45.41,8.62 62.65,25.85l12.19 12.19 12.19 -12.19c17.23,-17.23 39.94,-25.85 62.65,-25.85 22.7,0 45.41,8.62 62.65,25.85 17.23,17.24 25.85,39.94 25.85,62.65z"/></g></svg>