<svg xmlns="http://www.w3.org/2000/svg" xmlns:xlink="http://www.w3.org/1999/xlink" xmlns:xodm="http://www.corel.com/coreldraw/odm/2003" xml:space="preserve" version="1.1" style="shape-rendering:geometricPrecision;text-rendering:geometricPrecision;image-rendering:optimizeQuality;" viewBox="0 0 139.35 158.3625" x="0px" y="0px" fill-rule="evenodd" clip-rule="evenodd"><defs><style type="text/css">
   
    .fil0 {fill:black;fill-rule:nonzero}
   
  </style></defs><g><path class="fil0" d="M126.69 9.5l9.33 0c1.84,0 3.33,1.5 3.33,3.33l0 48.69c0,0.92 -0.37,1.75 -0.98,2.36l-61.84 61.84c-1.3,1.3 -3.42,1.3 -4.72,0l-6.63 -6.63 -6.63 6.63c-1.3,1.3 -3.42,1.3 -4.72,0l-52.88 -52.87c-1.3,-1.3 -1.3,-3.42 0,-4.72l67.15 -67.15c0.73,-0.73 1.71,-1.05 2.66,-0.96l52.57 0c1.83,0 3.32,1.49 3.33,3.32l0 6.16zm-56.77 104.87l4.27 4.27 58.5 -58.5 0 -43.98 -6 0 0.01 40.04c0,0.92 -0.37,1.75 -0.98,2.36l-55.81 55.81zm50.11 -59.55l0 -48.17 -48.14 -0 -63.83 63.83 48.16 48.16 63.81 -63.82z"/><path class="fil0" d="M105.62 21.07c4.47,4.51 4.5,11.82 0,16.33 -4.48,4.51 -11.86,4.51 -16.35,0.02 -4.49,-4.49 -4.49,-11.83 -0,-16.33 4.48,-4.51 11.86,-4.51 16.35,-0.02zm-4.7 4.71c-1.92,-1.89 -5.02,-1.91 -6.93,0 -1.9,1.89 -1.9,5.02 -0,6.91 1.9,1.9 5.02,1.91 6.92,0 1.91,-1.89 1.89,-5.02 0.01,-6.92z"/></g></svg>